<?xml version="1.0" encoding="iso-8859-1"?>
<!-- Uploaded to: SVG Repo, www.svgrepo.com, Generator: SVG Repo Mixer Tools -->
<!DOCTYPE svg PUBLIC "-//W3C//DTD SVG 1.1//EN" "http://www.w3.org/Graphics/SVG/1.1/DTD/svg11.dtd">
<svg fill="#000000" height="800px" width="800px" version="1.1" id="Capa_1" xmlns="http://www.w3.org/2000/svg" xmlns:xlink="http://www.w3.org/1999/xlink" 
	 viewBox="0 0 462.29 462.29" xml:space="preserve">
<g>
	<path d="M462.29,173.578c0-2.207-1.436-4.08-3.422-4.743c-26.952-9.793-59.678-15.946-93.931-17.807c0,0,8.063-40.006,8.063-41.649
		c0-13.4-19.215-24.323-57.109-32.466c-34.615-7.438-80.566-11.534-129.39-11.534S91.725,69.474,57.109,76.912
		C19.214,85.055,0,95.978,0,109.378c0,1.594,30.769,157.47,30.769,157.47c0.331,9.951,9.993,18.65,28.732,25.865
		c16.695,6.427,39.894,11.419,67.088,14.435l0.002-0.018c0.183,0.02,0.366,0.049,0.548,0.049c1.414,0,2.794-0.601,3.763-1.707
		l57.403-65.565l55.632,12.474v79.555c0,1.747,0.911,3.366,2.404,4.273l98.729,59.976c0.795,0.483,1.694,0.727,2.596,0.727
		c0.749,0,1.5-0.168,2.194-0.507l109.621-53.534c1.717-0.839,2.806-2.582,2.806-4.493V173.583c0-0.002-0.001-0.003-0.001-0.005
		H462.29z M342.9,150.418c-3.312,0-6.615,0.052-9.91,0.131l0.819-13.169c10.78-3.117,19.3-6.494,25.601-10.163l-4.583,23.396
		C350.863,150.495,346.888,150.418,342.9,150.418z M40.76,266.318c0-0.323-0.031-0.645-0.093-0.962L13.577,127.139
		c26.062,15.354,82.805,21.617,108.563,23.733v145.683c-23.939-2.958-44.271-7.486-59.046-13.174
		C49.109,277.997,40.76,271.618,40.76,266.318z M125.227,141.086C45.778,134.921,10,118.895,10,109.378
		c0-3.093,4.202-7.001,11.528-10.723c8.634-4.386,21.664-8.524,37.683-11.966c33.945-7.294,79.151-11.311,127.29-11.311
		c48.138,0,93.344,4.017,127.29,11.311c38.846,8.347,49.21,18.189,49.21,22.689c0,4.424-8.994,12.024-34.203,19.028l-141.461-23.958
		c-1.191-0.201-2.418,0.035-3.449,0.667L125.227,141.086z M132.14,148.577l49.36-30.268v114.19l-49.36,56.378V148.577z
		 M191.5,230.375V115.296l132.27,22.401l-0.822,13.212c-26.629,1.296-52.347,5.169-75.318,11.404l0.002,0.006
		c-0.395,0.107-0.781,0.258-1.146,0.464c-1.574,0.885-2.549,2.552-2.549,4.358v74.992L191.5,230.375z M452.287,335.255
		l-99.621,48.65v-28.527c0-2.761-2.238-5-5-5s-5,2.239-5,5v27.646l-88.729-53.901V176.028l30.807,18.715
		c2.356,1.434,5.435,0.683,6.869-1.677c1.434-2.36,0.683-5.436-1.678-6.869l-28.148-17.099c24.989-5.689,52.768-8.679,81.112-8.679
		c36.213,0,71.635,4.951,101.212,14.034l-22.124,10.804c-2.481,1.212-3.511,4.206-2.299,6.687c1.212,2.481,4.207,3.511,6.688,2.299
		l25.91-12.653V335.255z"/>
	<path d="M364.509,213.326l-16.583,8.098l-40.413-24.55c-2.357-1.434-5.435-0.682-6.869,1.677c-1.434,2.36-0.683,5.436,1.678,6.869
		l40.344,24.508v28.449c0,2.761,2.238,5,5,5s5-2.239,5-5v-28.139l16.232-7.927c2.481-1.212,3.511-4.206,2.299-6.687
		C369.985,213.144,366.991,212.114,364.509,213.326z"/>
	<path d="M405.087,193.51l-8.018,3.916c-2.481,1.212-3.511,4.206-2.299,6.687c0.867,1.775,2.646,2.807,4.497,2.807
		c0.736,0,1.484-0.164,2.19-0.508l8.018-3.916c2.481-1.212,3.511-4.206,2.299-6.687S407.569,192.298,405.087,193.51z"/>
	<path d="M347.666,280.784c-2.762,0-5,2.239-5,5v30.188c0,2.761,2.238,5,5,5s5-2.239,5-5v-30.188
		C352.666,283.023,350.427,280.784,347.666,280.784z"/>
	<circle cx="384.333" cy="276.045" r="4.966"/>
	<circle cx="423" cy="228.711" r="4.966"/>
	<circle cx="425.667" cy="243.378" r="4.966"/>
	<circle cx="396.333" cy="340.045" r="4.966"/>
	<circle cx="290.333" cy="254.711" r="4.966"/>
	<circle cx="278.034" cy="211.378" r="4.966"/>
	<circle cx="305.182" cy="290.414" r="4.966"/>
	<circle cx="328.333" cy="244.711" r="4.966"/>
	<circle cx="292.333" cy="328.711" r="4.966"/>
	<circle cx="269.667" cy="300.711" r="4.966"/>
	<circle cx="149.667" cy="165.378" r="4.966"/>
	<circle cx="161" cy="193.378" r="4.966"/>
	<circle cx="149.667" cy="231.378" r="4.966"/>
	<circle cx="212.333" cy="145.378" r="4.966"/>
	<circle cx="240.333" cy="143.378" r="4.966"/>
	<circle cx="223" cy="177.378" r="4.966"/>
	<circle cx="227.667" cy="217.378" r="4.966"/>
	<circle cx="280.034" cy="140.045" r="4.966"/>
</g>
</svg>